<svg width="51" height="50" viewBox="0 0 51 50" fill="none" xmlns="http://www.w3.org/2000/svg">
<path fill-rule="evenodd" clip-rule="evenodd" d="M23.9372 12.059C16.3295 12.8409 10.3955 19.2691 10.3955 27.0833C10.3955 35.4251 17.1579 42.1875 25.4997 42.1875C33.3139 42.1875 39.7421 36.2535 40.524 28.6458H25.4997C24.6367 28.6458 23.9372 27.9463 23.9372 27.0833V12.059ZM7.27051 27.0833C7.27051 17.0156 15.432 8.85416 25.4997 8.85416C26.3626 8.85416 27.0622 9.55372 27.0622 10.4167V25.5208H42.1663C43.0293 25.5208 43.7288 26.2204 43.7288 27.0833C43.7288 37.151 35.5674 45.3125 25.4997 45.3125C15.432 45.3125 7.27051 37.151 7.27051 27.0833Z" fill="#474C75"/>
<path fill-rule="evenodd" clip-rule="evenodd" d="M32.7913 9.73675V19.7917H42.8462C41.6733 14.8242 37.7588 10.9097 32.7913 9.73675ZM31.7455 6.37843C39.2879 7.31703 45.266 13.2951 46.2046 20.8375C46.3467 21.9793 45.4003 22.9167 44.2497 22.9167H30.708C30.1327 22.9167 29.6663 22.4503 29.6663 21.875V8.33333C29.6663 7.18274 30.6038 6.23634 31.7455 6.37843Z" fill="#474C75"/>
</svg>
