<svg width="77" height="77" viewBox="0 0 77 77" fill="none" xmlns="http://www.w3.org/2000/svg">
<path fill-rule="evenodd" clip-rule="evenodd" d="M67.4998 27C67.4998 22.5388 67.4998 20.3082 66.4291 18.7058C65.9656 18.0121 65.37 17.4165 64.6764 16.953C63.2748 16.0166 61.3926 15.8992 57.9576 15.8845C57.9706 16.8101 57.9705 17.7773 57.9704 18.7746L57.9704 19.0588V23.0294H61.1469C62.4626 23.0294 63.5292 24.0961 63.5292 25.4118C63.5292 26.7275 62.4626 27.7941 61.1469 27.7941H57.9704V32.5589H61.1469C62.4626 32.5589 63.5292 33.6255 63.5292 34.9412C63.5292 36.2569 62.4626 37.3236 61.1469 37.3236H57.9704V42.0883H61.1469C62.4626 42.0883 63.5292 43.1549 63.5292 44.4706C63.5292 45.7864 62.4626 46.853 61.1469 46.853H57.9704V67.5H53.2057V19.0588C53.2057 13.0692 53.2057 10.0744 51.3449 8.2137C49.4842 6.35297 46.4894 6.35297 40.4998 6.35297H34.1469C28.1572 6.35297 25.1624 6.35297 23.3017 8.2137C21.441 10.0744 21.441 13.0692 21.441 19.0588V67.5H16.6763V46.853H13.4998C12.1841 46.853 11.1174 45.7864 11.1174 44.4706C11.1174 43.1549 12.1841 42.0883 13.4998 42.0883H16.6763V37.3236H13.4998C12.1841 37.3236 11.1174 36.2569 11.1174 34.9412C11.1174 33.6255 12.1841 32.5589 13.4998 32.5589H16.6763V27.7941H13.4998C12.1841 27.7941 11.1174 26.7275 11.1174 25.4118C11.1174 24.0961 12.1841 23.0294 13.4998 23.0294H16.6763V19.0588L16.6762 18.7746C16.6761 17.7773 16.676 16.8101 16.6891 15.8845C13.254 15.8992 11.3718 16.0166 9.97029 16.953C9.27662 17.4165 8.68102 18.0121 8.21752 18.7058C7.14686 20.3082 7.14686 22.5388 7.14686 27V67.5H5.55862C4.24289 67.5 3.17627 68.5666 3.17627 69.8824C3.17627 71.1981 4.24289 72.2647 5.55862 72.2647H69.088C70.4038 72.2647 71.4704 71.1981 71.4704 69.8824C71.4704 68.5666 70.4038 67.5 69.088 67.5H67.4998V27ZM28.588 37.3236C28.588 36.0078 29.6547 34.9412 30.9704 34.9412H43.6763C44.992 34.9412 46.0586 36.0078 46.0586 37.3236C46.0586 38.6393 44.992 39.7059 43.6763 39.7059H30.9704C29.6547 39.7059 28.588 38.6393 28.588 37.3236ZM28.588 46.853C28.588 45.5372 29.6547 44.4706 30.9704 44.4706H43.6763C44.992 44.4706 46.0586 45.5372 46.0586 46.853C46.0586 48.1687 44.992 49.2353 43.6763 49.2353H30.9704C29.6547 49.2353 28.588 48.1687 28.588 46.853ZM37.3233 57.9706C38.6391 57.9706 39.7057 59.0372 39.7057 60.353V67.5H34.941V60.353C34.941 59.0372 36.0076 57.9706 37.3233 57.9706ZM28.588 19.853C28.588 18.5372 29.6547 17.4706 30.9704 17.4706H43.6763C44.992 17.4706 46.0586 18.5372 46.0586 19.853C46.0586 21.1687 44.992 22.2353 43.6763 22.2353H30.9704C29.6547 22.2353 28.588 21.1687 28.588 19.853ZM28.588 29.3824C28.588 28.0666 29.6547 27 30.9704 27H43.6763C44.992 27 46.0586 28.0666 46.0586 29.3824C46.0586 30.6981 44.992 31.7647 43.6763 31.7647H30.9704C29.6547 31.7647 28.588 30.6981 28.588 29.3824Z" fill="#474C75"/>
</svg>
