<svg width="24" height="25" viewBox="0 0 24 25" fill="none" xmlns="http://www.w3.org/2000/svg">
<path d="M17.5777 4.66687L15.5777 3.61732C13.8221 2.69601 12.9443 2.23535 12 2.23535C11.0557 2.23535 10.1779 2.69601 8.42229 3.61732L6.42229 4.66687C4.64855 5.59769 3.6059 6.14485 2.95969 6.87667L12 11.3968L21.0403 6.87667C20.3941 6.14485 19.3515 5.59769 17.5777 4.66687Z" fill="#474C75"/>
<path d="M21.7484 8.1997L12.75 12.6989V22.1394C13.4679 21.9606 14.2848 21.5319 15.5777 20.8534L17.5777 19.8038C19.7294 18.6747 20.8052 18.1101 21.4026 17.0956C22 16.0811 22 14.8187 22 12.2938V12.1769C22 10.2842 22 9.10093 21.7484 8.1997Z" fill="#474C75"/>
<path d="M11.25 22.1394V12.6989L2.25164 8.1997C2 9.10093 2 10.2842 2 12.1769V12.2938C2 14.8187 2 16.0811 2.5974 17.0956C3.19479 18.1101 4.27063 18.6747 6.42229 19.8038L8.42229 20.8534C9.71524 21.5319 10.5321 21.9606 11.25 22.1394Z" fill="#474C75"/>
</svg>
