<svg width="51" height="50" viewBox="0 0 51 50" fill="none" xmlns="http://www.w3.org/2000/svg">
<path fill-rule="evenodd" clip-rule="evenodd" d="M15.8545 20.8334C15.8545 15.3681 20.2851 10.9376 25.7504 10.9376C31.2157 10.9376 35.6462 15.3681 35.6462 20.8334C35.6462 26.2987 31.2157 30.7292 25.7504 30.7292C20.2851 30.7292 15.8545 26.2987 15.8545 20.8334ZM25.7504 14.0626C22.011 14.0626 18.9795 17.094 18.9795 20.8334C18.9795 24.5728 22.011 27.6042 25.7504 27.6042C29.4898 27.6042 32.5212 24.5728 32.5212 20.8334C32.5212 17.094 29.4898 14.0626 25.7504 14.0626Z" fill="#474C75"/>
<path fill-rule="evenodd" clip-rule="evenodd" d="M8.0928 18.4519C8.83098 9.49642 16.3146 2.60425 25.3004 2.60425H26.2003C35.1861 2.60425 42.6698 9.49642 43.408 18.4519C43.8045 23.2626 42.3185 28.0394 39.263 31.7763L29.2774 43.9883C27.4545 46.2177 24.0463 46.2177 22.2233 43.9883L12.2378 31.7763C9.18226 28.0394 7.69626 23.2626 8.0928 18.4519ZM25.3004 5.72925C17.941 5.72925 11.8118 11.374 11.2072 18.7086C10.8772 22.7124 12.114 26.6881 14.657 29.7981L24.6426 42.0102C25.2151 42.7104 26.2856 42.7104 26.8582 42.0102L36.8438 29.7981C39.3868 26.6881 40.6236 22.7124 40.2935 18.7086C39.6889 11.374 33.5598 5.72925 26.2003 5.72925H25.3004Z" fill="#474C75"/>
</svg>
