<svg width="211" height="42" viewBox="0 0 211 42" fill="none" xmlns="http://www.w3.org/2000/svg">
<g clip-path="url(#clip0_1_4)">
<mask id="mask0_1_4" style="mask-type:luminance" maskUnits="userSpaceOnUse" x="0" y="0" width="211" height="42">
<path d="M211 0H0V42H211V0Z" fill="white"/>
</mask>
<g mask="url(#mask0_1_4)">
<path d="M10 3H18V11H10V3ZM10 17H18V25H10V17ZM10 31H18V39H10V31ZM6 11H0V5H6V11ZM6 24H0V18H6V24ZM6 37H0V31H6V37ZM46 11H38V3H46V11ZM46 25H38V17H46V25ZM46 39H38V31H46V39ZM50 5H56V11H50V5ZM50 18H56V24H50V18ZM50 31H56V37H50V31ZM34 42H22V30H34V42ZM34 27H22V15H34V27ZM34 12H22V0H34V12ZM62 5V37H211V5H62ZM71.86 26.39H69V15.61H71.86V26.39ZM76.97 26.39H74.1V15.61H77L76.97 26.39ZM89.66 23.18C89.6733 23.6319 89.5807 24.0806 89.3898 24.4904C89.1988 24.9002 88.9146 25.2596 88.56 25.54C87.79 26.19 86.4 26.54 84.42 26.54H83.83C82.27 26.54 80.76 26.45 79.09 26.45V24.13C80.79 24.13 82.09 24.13 83.94 24.18C84.7721 24.1962 85.5989 24.0431 86.37 23.73C86.66 23.53 86.8 23.33 86.74 23.14C86.7571 22.9721 86.7082 22.8042 86.6037 22.6717C86.4992 22.5392 86.3472 22.4525 86.18 22.43C85.5467 22.2882 84.8989 22.2211 84.25 22.23C83.5569 22.2205 82.8653 22.1637 82.18 22.06C81.4124 21.9506 80.682 21.6592 80.05 21.21C79.7282 20.9447 79.4709 20.6097 79.2976 20.2302C79.1244 19.8508 79.0397 19.437 79.05 19.02V18.83C79.0323 18.3736 79.1238 17.9195 79.3168 17.5056C79.5099 17.0916 79.7989 16.7298 80.16 16.45C80.92 15.79 82.31 15.45 84.3 15.45H84.86H89.11V18C87.6 18 85.89 18 84.45 18C83.7351 17.9271 83.0133 18.0336 82.35 18.31C82.04 18.48 81.93 18.68 81.98 18.88C81.98 19.24 82.15 19.47 82.55 19.59C83.1842 19.7252 83.8316 19.789 84.48 19.78C85.1497 19.7925 85.8178 19.8493 86.48 19.95C87.2543 20.0574 87.9916 20.3489 88.63 20.8C88.962 21.0632 89.2261 21.4021 89.4001 21.7884C89.5741 22.1746 89.6529 22.597 89.63 23.02L89.66 23.18ZM209 35H96V7H209V35ZM110.11 25.68C110.72 25.3802 111.269 24.97 111.73 24.47L110.1 23.11C109.852 23.3767 109.562 23.5999 109.24 23.77C108.811 24.0036 108.329 24.124 107.84 24.12C107.419 24.1166 107.003 24.0246 106.62 23.85C106.281 23.6703 105.968 23.4449 105.69 23.18C105.425 22.8843 105.212 22.5463 105.06 22.18C104.9 21.8007 104.821 21.3917 104.83 20.98C104.823 20.5781 104.901 20.1793 105.06 19.81C105.212 19.4437 105.425 19.1057 105.69 18.81C105.973 18.5142 106.313 18.2794 106.69 18.12C107.076 17.9539 107.49 17.8655 107.91 17.86C108.481 17.8693 109.038 18.0353 109.52 18.34L111.1 17C110.687 16.6781 110.233 16.4125 109.75 16.21C109.141 15.9767 108.492 15.8613 107.84 15.87C107.154 15.8636 106.473 15.9963 105.84 16.26C105.217 16.5332 104.648 16.9159 104.16 17.39C103.717 17.8659 103.352 18.4094 103.08 19C102.797 19.6283 102.653 20.3108 102.66 21C102.654 21.6902 102.801 22.3732 103.09 23C103.345 23.6092 103.711 24.1654 104.17 24.64C104.647 25.125 105.214 25.5123 105.84 25.78C106.474 26.0414 107.154 26.174 107.84 26.17C108.625 26.1871 109.402 26.0192 110.11 25.68ZM117.99 26.18C117.304 26.1798 116.625 26.0474 115.99 25.79C115.375 25.5389 114.819 25.1606 114.36 24.68C113.852 24.2125 113.449 23.643 113.177 23.0088C112.905 22.3746 112.769 21.6901 112.78 21C112.784 20.3138 112.919 19.6348 113.18 19C113.444 18.3867 113.828 17.8324 114.31 17.37C114.785 16.8755 115.362 16.49 116 16.24C116.63 15.961 117.311 15.8179 118 15.82C118.689 15.8154 119.371 15.9587 120 16.24C120.624 16.4979 121.191 16.875 121.67 17.35C122.152 17.8195 122.537 18.3804 122.8 19C123.065 19.6334 123.201 20.3134 123.2 21C123.203 21.6869 123.067 22.3672 122.8 23C122.542 23.6116 122.165 24.1657 121.69 24.63C121.211 25.1266 120.636 25.5212 120 25.79C119.365 26.0474 118.686 26.1798 118 26.18H117.99ZM117.99 17.76C117.56 17.7634 117.135 17.8518 116.74 18.02C116.369 18.1942 116.031 18.431 115.74 18.72C115.467 19.0389 115.247 19.4003 115.09 19.79C114.797 20.5838 114.797 21.4562 115.09 22.25C115.244 22.6175 115.461 22.9558 115.73 23.25C116.017 23.5457 116.356 23.7863 116.73 23.96C117.126 24.1493 117.561 24.2419 118 24.23C118.439 24.243 118.874 24.1504 119.27 23.96C119.641 23.7897 119.979 23.5562 120.27 23.27C120.551 22.9569 120.772 22.594 120.92 22.2C121.084 21.8176 121.169 21.4061 121.17 20.99C121.17 20.5609 121.085 20.136 120.92 19.74C120.764 19.3779 120.555 19.0409 120.3 18.74C120.011 18.444 119.672 18.2004 119.3 18.02C118.889 17.8452 118.447 17.7567 118 17.76H117.99ZM133.99 25.87V16.1H131.91V22.67L127.67 16.1H125.47V25.87H127.53V19.36L131.74 25.87H133.99ZM141.72 26.05C142.215 25.9541 142.694 25.7856 143.14 25.55C143.549 25.3374 143.894 25.0199 144.14 24.63C144.404 24.1754 144.532 23.655 144.51 23.13C144.506 22.9225 144.49 22.7154 144.46 22.51C144.417 22.2983 144.347 22.0932 144.25 21.9C144.162 21.6651 144.018 21.4556 143.83 21.29C143.627 21.1047 143.398 20.9497 143.15 20.83C142.906 20.6873 142.648 20.57 142.38 20.48L141.89 20.34L141.47 20.21L141 20.1L140.56 20.01L139.71 19.82L139.5 19.75C139.355 19.7058 139.215 19.6489 139.08 19.58C138.884 19.4878 138.707 19.3588 138.56 19.2C138.465 19.0332 138.423 18.8413 138.44 18.65C138.433 18.428 138.5 18.2098 138.63 18.03C138.73 17.8624 138.891 17.7405 139.08 17.69C139.227 17.6055 139.391 17.5543 139.56 17.54C139.723 17.5266 139.887 17.5266 140.05 17.54C140.641 17.5385 141.228 17.6296 141.79 17.81C142.25 17.98 142.65 18.14 143.01 18.3L143.1 18.16L143.49 17.48C143.63 17.21 143.79 16.94 143.95 16.67C143.476 16.4162 142.972 16.2215 142.45 16.09C141.796 15.9286 141.124 15.848 140.45 15.85C140.042 15.8518 139.635 15.8785 139.23 15.93C138.843 15.9814 138.466 16.0893 138.11 16.25C137.77 16.3807 137.455 16.5703 137.18 16.81C136.891 17.0482 136.656 17.3447 136.49 17.68C136.411 17.8725 136.345 18.0695 136.29 18.27C136.255 18.4783 136.235 18.6888 136.23 18.9C136.207 19.3784 136.31 19.8544 136.53 20.28C136.72 20.6198 137 20.9003 137.34 21.09C137.507 21.1917 137.681 21.2819 137.86 21.36C138.091 21.4529 138.328 21.5298 138.57 21.59C138.796 21.663 139.027 21.7231 139.26 21.77L140.04 21.95L140.32 22.01L140.59 22.08C140.813 22.1178 141.033 22.1679 141.25 22.23L141.43 22.31L141.59 22.39L141.85 22.56C141.969 22.639 142.071 22.741 142.15 22.86C142.246 22.9981 142.298 23.1619 142.3 23.33C142.277 23.5805 142.172 23.8163 142 24C141.859 24.1474 141.689 24.2633 141.5 24.34C141.301 24.4143 141.092 24.4614 140.88 24.48H140.4C139.842 24.4827 139.285 24.4223 138.74 24.3C138.204 24.1407 137.682 23.9366 137.18 23.69C137.18 23.75 136.94 24.08 136.94 24.08C136.851 24.2368 136.75 24.3872 136.64 24.53C136.596 24.6297 136.546 24.7265 136.49 24.82L136.22 25.29C136.799 25.5633 137.406 25.7744 138.03 25.92C138.685 26.0778 139.357 26.1518 140.03 26.14C140.588 26.1657 141.148 26.1355 141.7 26.05H141.72ZM150.89 26.18H151.36L151.57 26.12C151.704 26.0962 151.835 26.0559 151.96 26C152.372 25.8959 152.765 25.7236 153.12 25.49C153.46 25.2643 153.766 24.9916 154.03 24.68C154.283 24.3778 154.492 24.0411 154.65 23.68C154.784 23.2805 154.852 22.8615 154.85 22.44V16.1H152.69V22.22C152.69 22.4509 152.632 22.678 152.52 22.88C152.43 23.1191 152.283 23.3322 152.09 23.5C151.911 23.6395 151.717 23.757 151.51 23.85C151.293 23.9152 151.067 23.9489 150.84 23.95C150.589 23.948 150.339 23.9076 150.1 23.83C149.903 23.7361 149.718 23.6185 149.55 23.48C149.381 23.3097 149.239 23.114 149.13 22.9C149.039 22.6848 148.991 22.4537 148.99 22.22V16.1H146.8V22.39C146.801 22.8047 146.869 23.2166 147 23.61C147.15 23.9936 147.359 24.3512 147.62 24.67C147.881 24.9813 148.188 25.2511 148.53 25.47C148.902 25.7202 149.315 25.903 149.75 26.01C149.855 26.0569 149.966 26.0905 150.08 26.11L150.25 26.16C150.42 26.1706 150.59 26.1706 150.76 26.16L150.89 26.18ZM165.42 25.87V24H159.89V16.1H157.7V25.87H165.42ZM171.23 25.87V18H174.32V16.1H166V18H169.06V25.91L171.23 25.87ZM178.38 25.87V16.1H176.3V25.87H178.38ZM189.6 25.87V16.1H187.54V22.67L183.31 16.1H181.08V25.87H183.14V19.37L187.37 25.87H189.6ZM199.44 25.6L199.98 25.3V25.87H201.64V20.69H197.77V22.47H200C199.909 22.6966 199.781 22.9062 199.62 23.09C199.317 23.4795 198.917 23.7829 198.46 23.97C198.029 24.1869 197.552 24.2966 197.07 24.29C196.632 24.3062 196.196 24.217 195.8 24.03C195.426 23.8563 195.087 23.6157 194.8 23.32C194.206 22.7079 193.873 21.8882 193.873 21.035C193.873 20.1818 194.206 19.3621 194.8 18.75C195.081 18.452 195.422 18.2168 195.8 18.06C196.193 17.8588 196.629 17.7559 197.07 17.76C197.49 17.7655 197.904 17.8539 198.29 18.02C198.593 18.1467 198.874 18.3224 199.12 18.54L200.8 17.42C200.356 16.9607 199.83 16.5877 199.25 16.32C198.573 15.9847 197.826 15.8134 197.07 15.82C196.384 15.8179 195.705 15.9504 195.07 16.21C194.46 16.4901 193.905 16.8761 193.43 17.35C192.938 17.8231 192.546 18.3897 192.276 19.0165C192.007 19.6433 191.865 20.3177 191.86 21C191.853 21.6862 191.986 22.3666 192.25 23C192.503 23.6073 192.869 24.1606 193.33 24.63C193.802 25.1234 194.371 25.5147 195 25.78C195.711 26.072 196.477 26.2071 197.245 26.1761C198.013 26.145 198.765 25.9485 199.45 25.6H199.44Z" fill="#474C75"/>
</g>
</g>
<defs>
<clipPath id="clip0_1_4">
<rect width="211" height="42" fill="white"/>
</clipPath>
</defs>
</svg>
