<svg width="40" height="41" viewBox="0 0 40 41" fill="none" xmlns="http://www.w3.org/2000/svg">
<path d="M20.0002 36.9025C29.2049 36.9025 36.6668 33.5446 36.6668 29.4025C36.6668 27.2914 34.7286 25.3841 31.6092 24.0211C29.7057 27.5142 26.803 30.525 23.116 32.1006C21.1342 32.9476 18.8661 32.9476 16.8843 32.1006C13.1973 30.525 10.2946 27.5142 8.39113 24.0211C5.27175 25.3841 3.3335 27.2914 3.3335 29.4025C3.3335 33.5446 10.7954 36.9025 20.0002 36.9025Z" fill="white"/>
<path fill-rule="evenodd" clip-rule="evenodd" d="M8.3335 14.4265C8.3335 8.4299 13.5568 3.56873 20.0002 3.56873C26.4435 3.56873 31.6668 8.4299 31.6668 14.4265C31.6668 20.376 27.9432 27.3186 22.1336 29.8013C20.7793 30.3801 19.221 30.3801 17.8667 29.8013C12.0571 27.3186 8.3335 20.376 8.3335 14.4265ZM20.0002 18.5687C21.8411 18.5687 23.3335 17.0763 23.3335 15.2354C23.3335 13.3944 21.8411 11.9021 20.0002 11.9021C18.1592 11.9021 16.6668 13.3944 16.6668 15.2354C16.6668 17.0763 18.1592 18.5687 20.0002 18.5687Z" fill="white"/>
</svg>
