<svg width="40" height="41" viewBox="0 0 40 41" fill="none" xmlns="http://www.w3.org/2000/svg">
<path d="M30.8331 5.23535H26.6664C26.2062 5.23535 25.8331 5.60845 25.8331 6.06868V6.16686L31.6664 10.8335V6.06868C31.6664 5.60845 31.2933 5.23535 30.8331 5.23535Z" fill="white"/>
<path fill-rule="evenodd" clip-rule="evenodd" d="M17.9164 16.0687C17.9164 14.9181 18.8491 13.9854 19.9997 13.9854C21.1503 13.9854 22.0831 14.9181 22.0831 16.0687C22.0831 17.2193 21.1503 18.152 19.9997 18.152C18.8491 18.152 17.9164 17.2193 17.9164 16.0687Z" fill="white"/>
<path fill-rule="evenodd" clip-rule="evenodd" d="M34.5831 18.5028L35.8855 19.5448C36.4246 19.976 37.2112 19.8886 37.6425 19.3496C38.0737 18.8105 37.9863 18.0239 37.4473 17.5926L23.9041 6.75805C21.6215 4.93195 18.378 4.93195 16.0954 6.75805L2.55219 17.5926C2.01311 18.0239 1.92571 18.8105 2.35697 19.3496C2.78823 19.8886 3.57485 19.976 4.11392 19.5448L5.41639 18.5028V35.652H3.33305C2.6427 35.652 2.08305 36.2117 2.08305 36.902C2.08305 37.5924 2.6427 38.152 3.33305 38.152H36.6664C37.3567 38.152 37.9164 37.5924 37.9164 36.902C37.9164 36.2117 37.3567 35.652 36.6664 35.652H34.5831V18.5028ZM15.4164 16.0687C15.4164 13.5374 17.4684 11.4854 19.9997 11.4854C22.531 11.4854 24.5831 13.5374 24.5831 16.0687C24.5831 18.6 22.531 20.652 19.9997 20.652C17.4684 20.652 15.4164 18.6 15.4164 16.0687ZM20.082 22.3187C21.1901 22.3186 22.1449 22.3186 22.9095 22.4214C23.7289 22.5315 24.5143 22.78 25.1514 23.417C25.7885 24.0541 26.0369 24.8396 26.147 25.6589C26.2434 26.3757 26.2494 27.2597 26.2497 28.2804C26.2497 28.3485 26.2497 28.4171 26.2497 28.4864L26.2497 35.652H23.7497V28.5687C23.7497 27.3548 23.7471 26.5702 23.6693 25.9921C23.5964 25.4499 23.4788 25.28 23.3836 25.1848C23.2885 25.0896 23.1185 24.972 22.5763 24.8991C21.9982 24.8213 21.2136 24.8187 19.9997 24.8187C18.7859 24.8187 18.0012 24.8213 17.4231 24.8991C16.8809 24.972 16.711 25.0896 16.6158 25.1848C16.5207 25.28 16.403 25.4499 16.3301 25.9921C16.2524 26.5702 16.2497 27.3548 16.2497 28.5687V35.652H13.7497L13.7497 28.4864C13.7497 27.3783 13.7496 26.4235 13.8524 25.6589C13.9626 24.8396 14.211 24.0541 14.8481 23.417C15.4851 22.78 16.2706 22.5315 17.09 22.4214C17.8546 22.3186 18.8093 22.3186 19.9174 22.3187H20.082Z" fill="white"/>
<path fill-rule="evenodd" clip-rule="evenodd" d="M17.9164 16.0687C17.9164 14.9181 18.8491 13.9854 19.9997 13.9854C21.1503 13.9854 22.0831 14.9181 22.0831 16.0687C22.0831 17.2193 21.1503 18.152 19.9997 18.152C18.8491 18.152 17.9164 17.2193 17.9164 16.0687Z" fill="white"/>
</svg>
