<svg width="40" height="41" viewBox="0 0 40 41" fill="none" xmlns="http://www.w3.org/2000/svg">
<path d="M22.4997 18.9854H17.9163V13.9021C17.9163 13.7404 17.9164 13.6442 17.9184 13.5717C17.9197 13.5257 17.9214 13.5057 17.9219 13.5009C17.951 13.3248 18.089 13.1867 18.2652 13.1576C18.27 13.1571 18.29 13.1554 18.336 13.1542C18.4085 13.1522 18.5047 13.1521 18.6663 13.1521H22.4997C24.1105 13.1521 25.4163 14.4579 25.4163 16.0687C25.4163 17.6796 24.1105 18.9854 22.4997 18.9854Z" fill="white"/>
<path fill-rule="evenodd" clip-rule="evenodd" d="M36.6663 20.2354C36.6663 29.4401 29.2044 36.9021 19.9997 36.9021C10.7949 36.9021 3.33301 29.4401 3.33301 20.2354C3.33301 11.0306 10.7949 3.56873 19.9997 3.56873C29.2044 3.56873 36.6663 11.0306 36.6663 20.2354ZM13.7497 23.5687C13.7497 22.8784 14.3093 22.3187 14.9997 22.3187H15.4163V21.4854H14.9997C14.3093 21.4854 13.7497 20.9257 13.7497 20.2354C13.7497 19.545 14.3093 18.9854 14.9997 18.9854H15.4163L15.4163 13.8379C15.416 13.5954 15.4157 13.3432 15.4522 13.1125C15.6499 11.8644 16.6287 10.8856 17.8767 10.688C18.1075 10.6514 18.3596 10.6517 18.6022 10.652L22.4997 10.6521C25.4912 10.6521 27.9163 13.0772 27.9163 16.0687C27.9163 19.0603 25.4912 21.4854 22.4997 21.4854H17.9163V22.3187H19.9997C20.69 22.3187 21.2497 22.8784 21.2497 23.5687C21.2497 24.2591 20.69 24.8187 19.9997 24.8187H17.9163V28.5687C17.9163 29.2591 17.3567 29.8187 16.6663 29.8187C15.976 29.8187 15.4163 29.2591 15.4163 28.5687V24.8187H14.9997C14.3093 24.8187 13.7497 24.2591 13.7497 23.5687Z" fill="white"/>
</svg>
