<svg width="40" height="41" viewBox="0 0 40 41" fill="none" xmlns="http://www.w3.org/2000/svg">
<path fill-rule="evenodd" clip-rule="evenodd" d="M3.3335 20.2354V13.5687C3.3335 8.85468 3.3335 6.49766 4.79796 5.03319C6.26243 3.56873 8.61945 3.56873 13.3335 3.56873H26.6668C31.3809 3.56873 33.7379 3.56873 35.2024 5.03319C36.6668 6.49766 36.6668 8.85468 36.6668 13.5687V20.2354C36.6668 24.9494 36.6668 27.3065 35.2024 28.7709C34.1251 29.8482 32.5647 30.133 29.9384 30.2083C29.9323 28.982 29.5063 27.7573 28.6604 26.7646C28.6125 26.7085 28.5836 26.6387 28.5777 26.5652C28.3687 23.946 26.2889 21.8662 23.6698 21.6572C23.5962 21.6513 23.5264 21.6224 23.4703 21.5746C21.4705 19.8704 18.5292 19.8704 16.5294 21.5746C16.4733 21.6224 16.4035 21.6513 16.3299 21.6572C13.7108 21.8662 11.631 23.946 11.422 26.5652C11.4161 26.6387 11.3872 26.7085 11.3394 26.7646C10.4934 27.7573 10.0674 28.982 10.0613 30.2083C7.43533 30.133 5.87518 29.8481 4.79796 28.7709C3.3335 27.3065 3.3335 24.9494 3.3335 20.2354ZM13.7502 10.2354C13.7502 9.54504 14.3098 8.98539 15.0002 8.98539H25.0002C25.6905 8.98539 26.2502 9.54504 26.2502 10.2354C26.2502 10.9257 25.6905 11.4854 25.0002 11.4854H15.0002C14.3098 11.4854 13.7502 10.9257 13.7502 10.2354ZM11.6668 14.8187C10.9765 14.8187 10.4168 15.3784 10.4168 16.0687C10.4168 16.7591 10.9765 17.3187 11.6668 17.3187H28.3335C29.0239 17.3187 29.5835 16.7591 29.5835 16.0687C29.5835 15.3784 29.0239 14.8187 28.3335 14.8187H11.6668Z" fill="white"/>
<path fill-rule="evenodd" clip-rule="evenodd" d="M21.8488 23.4774C20.7834 22.5694 19.2164 22.5694 18.151 23.4774C17.6944 23.8664 17.1268 24.1016 16.5288 24.1493C15.1334 24.2606 14.0254 25.3687 13.9141 26.764C13.8663 27.362 13.6312 27.9296 13.2421 28.3862C12.3342 29.4516 12.3342 31.0186 13.2421 32.084C13.6312 32.5405 13.8663 33.1082 13.9141 33.7061C14.0254 35.1015 15.1334 36.2095 16.5288 36.3209C17.1268 36.3686 17.6944 36.6037 18.151 36.9928C19.2164 37.9007 20.7834 37.9007 21.8488 36.9928C22.3053 36.6037 22.873 36.3686 23.4709 36.3209C24.8663 36.2095 25.9743 35.1015 26.0857 33.7061C26.1334 33.1082 26.3685 32.5405 26.7576 32.084C27.6655 31.0186 27.6655 29.4516 26.7576 28.3862C26.3685 27.9296 26.1334 27.362 26.0857 26.764C25.9743 25.3687 24.8663 24.2606 23.4709 24.1493C22.873 24.1016 22.3053 23.8664 21.8488 23.4774ZM23.3531 29.4826C23.8578 29.0115 23.885 28.2205 23.414 27.7158C22.9429 27.2111 22.152 27.1839 21.6473 27.6549L18.9287 30.1922L18.3531 29.6549C17.8484 29.1839 17.0574 29.2111 16.5863 29.7158C16.1153 30.2205 16.1426 31.0115 16.6473 31.4826L18.0758 32.8159C18.5561 33.2641 19.3014 33.2641 19.7816 32.8159L23.3531 29.4826Z" fill="white"/>
</svg>
