<svg width="51" height="50" viewBox="0 0 51 50" fill="none" xmlns="http://www.w3.org/2000/svg">
<path d="M27.0624 14.5834C27.0624 13.7204 26.3629 13.0209 25.4999 13.0209C24.637 13.0209 23.9374 13.7204 23.9374 14.5834V25C23.9374 25.5388 24.2149 26.0395 24.6718 26.325L30.9218 30.2313C31.6536 30.6886 32.6176 30.4662 33.0749 29.7344C33.5323 29.0026 33.3098 28.0387 32.578 27.5813L27.0624 24.134V14.5834Z" fill="#474C75"/>
<path fill-rule="evenodd" clip-rule="evenodd" d="M25.4999 6.77087C15.4322 6.77087 7.27075 14.9323 7.27075 25C7.27075 35.0677 15.4322 43.2292 25.4999 43.2292C35.5676 43.2292 43.7291 35.0677 43.7291 25C43.7291 14.9323 35.5676 6.77087 25.4999 6.77087ZM10.3958 25C10.3958 16.6582 17.1581 9.89587 25.4999 9.89587C33.8417 9.89587 40.6041 16.6582 40.6041 25C40.6041 33.3418 33.8417 40.1042 25.4999 40.1042C17.1581 40.1042 10.3958 33.3418 10.3958 25Z" fill="#474C75"/>
</svg>
