<svg width="44" height="32" viewBox="0 0 44 32" fill="none" xmlns="http://www.w3.org/2000/svg">
<path fill-rule="evenodd" clip-rule="evenodd" d="M36.9661 1.23403L22 0.895508L7.03395 1.23403C4.2607 1.29675 1.91257 3.29805 1.41114 6.0263C0.199217 12.6203 0.199217 19.3799 1.41114 25.9738C1.91257 28.7021 4.2607 30.7034 7.03395 30.7661L22 31.1046L36.9661 30.7661C39.7394 30.7034 42.0875 28.7021 42.5889 25.9738C43.8009 19.3799 43.8009 12.6203 42.5889 6.02631C42.0875 3.29804 39.7394 1.29675 36.9661 1.23403ZM7.10461 4.35823L22 4.02131L36.8955 4.35823C38.1877 4.38746 39.2818 5.31996 39.5154 6.5912C39.8347 8.32867 40.0649 10.0783 40.2058 11.8334H3.79424C3.93518 10.0783 4.16532 8.32867 4.48466 6.5912C4.7183 5.31996 5.81241 4.38746 7.10461 4.35823ZM3.6272 16.0001C3.6272 19.1494 3.91302 22.2987 4.48466 25.409C4.7183 26.6802 5.81241 27.6127 7.10461 27.6419L22 27.9788L36.8955 27.6419C38.1877 27.6127 39.2818 26.6802 39.5154 25.409C40.0871 22.2987 40.3729 19.1494 40.3729 16.0001H3.6272Z" fill="#474C75"/>
</svg>
