<svg width="77" height="77" viewBox="0 0 77 77" fill="none" xmlns="http://www.w3.org/2000/svg">
<path d="M58.7649 9.52948H50.8237C49.9466 9.52948 49.2355 10.2406 49.2355 11.1177V11.3048L60.3531 20.199V11.1177C60.3531 10.2406 59.6421 9.52948 58.7649 9.52948Z" fill="white"/>
<path fill-rule="evenodd" clip-rule="evenodd" d="M34.1473 30.1765C34.1473 27.9836 35.925 26.206 38.1179 26.206C40.3107 26.206 42.0884 27.9836 42.0884 30.1765C42.0884 32.3694 40.3107 34.1471 38.1179 34.1471C35.925 34.1471 34.1473 32.3694 34.1473 30.1765Z" fill="white"/>
<path fill-rule="evenodd" clip-rule="evenodd" d="M65.912 34.8157L68.3943 36.8015C69.4217 37.6235 70.9209 37.4569 71.7429 36.4295C72.5648 35.4021 72.3982 33.9029 71.3708 33.0809L45.5591 12.4316C41.2087 8.95124 35.027 8.95124 30.6766 12.4316L4.8649 33.0809C3.83748 33.9029 3.6709 35.4021 4.49284 36.4295C5.31477 37.4569 6.81397 37.6235 7.84139 36.8015L10.3237 34.8157V67.5001H6.35314C5.03741 67.5001 3.97079 68.5667 3.97079 69.8824C3.97079 71.1982 5.03741 72.2648 6.35314 72.2648H69.8826C71.1983 72.2648 72.2649 71.1982 72.2649 69.8824C72.2649 68.5667 71.1983 67.5001 69.8826 67.5001H65.912V34.8157ZM29.3826 30.1765C29.3826 25.3522 33.2935 21.4412 38.1179 21.4412C42.9422 21.4412 46.8531 25.3522 46.8531 30.1765C46.8531 35.0009 42.9422 38.9118 38.1179 38.9118C33.2935 38.9118 29.3826 35.0009 29.3826 30.1765ZM38.2747 42.0883C40.3866 42.0882 42.2063 42.0881 43.6635 42.284C45.2251 42.494 46.7221 42.9674 47.9363 44.1816C49.1505 45.3958 49.624 46.8928 49.8339 48.4544C50.0176 49.8206 50.029 51.5053 50.0296 53.4507C50.0296 53.5804 50.0296 53.7113 50.0296 53.8432L50.0296 67.5001H45.2649V54.0001C45.2649 51.6866 45.2599 50.1912 45.1117 49.0893C44.9728 48.056 44.7485 47.7321 44.5671 47.5508C44.3858 47.3694 44.0619 47.1451 43.0286 47.0062C41.9267 46.8581 40.4313 46.853 38.1179 46.853C35.8044 46.853 34.309 46.8581 33.2071 47.0062C32.1738 47.1451 31.8499 47.3694 31.6686 47.5508C31.4872 47.7321 31.2629 48.056 31.124 49.0893C30.9759 50.1912 30.9708 51.6866 30.9708 54.0001V67.5001H26.2061L26.2061 53.8432C26.206 51.7313 26.2059 49.9116 26.4018 48.4544C26.6117 46.8928 27.0852 45.3958 28.2994 44.1816C29.5136 42.9674 31.0106 42.494 32.5722 42.284C34.0294 42.0881 35.8491 42.0882 37.961 42.0883H38.2747Z" fill="white"/>
<path fill-rule="evenodd" clip-rule="evenodd" d="M34.1473 30.1765C34.1473 27.9836 35.925 26.206 38.1179 26.206C40.3107 26.206 42.0884 27.9836 42.0884 30.1765C42.0884 32.3694 40.3107 34.1471 38.1179 34.1471C35.925 34.1471 34.1473 32.3694 34.1473 30.1765Z" fill="white"/>
</svg>
